<svg width="140" height="27" viewBox="0 0 140 27" fill="none" xmlns="http://www.w3.org/2000/svg">
<path fill-rule="evenodd" clip-rule="evenodd" d="M118.81 22.4941C118.629 22.9288 118.556 23.3997 118.556 23.8706V25.2471H138.624C138.986 25.2471 139.348 25.1022 139.602 24.8486C139.855 24.595 140 24.2328 140 23.8706C140 23.5084 139.855 23.1461 139.602 22.8926C139.348 22.639 138.986 22.4941 138.624 22.4941H118.81ZM110.008 22.4941H113.014V25.2471H110.008C110.08 24.8124 110.116 24.3415 110.116 23.8706C110.116 23.3997 110.08 22.9288 110.008 22.4941ZM83.1307 22.4941H104.357C104.538 22.9288 104.611 23.3997 104.611 23.8706C104.611 24.3415 104.502 24.8124 104.357 25.2471H83.3842C83.2031 24.8124 83.1307 24.3415 83.1307 23.8706V22.4941V22.4941ZM60.7452 22.4941H77.6248V23.8706C77.6248 24.3415 77.6611 24.8124 77.7335 25.2471H60.7814C60.6003 24.8124 60.5278 24.3415 60.5278 23.8706C60.4916 23.3635 60.564 22.8926 60.7452 22.4941ZM55.0944 25.2471H51.9069V22.4941H55.0944C55.022 22.9288 54.9858 23.3997 54.9858 23.8706C54.9858 24.3415 55.022 24.7762 55.0944 25.2471ZM37.0194 22.4941C36.8745 22.8926 36.8021 23.3273 36.8021 23.7982V25.2471H46.401V22.4941H37.0194ZM26.8409 22.4941H31.2962V25.2471H26.8409C26.9133 24.8124 26.9495 24.3415 26.9495 23.8706C26.9133 23.3997 26.9133 22.9288 26.8409 22.4941ZM21.1539 22.4941C21.3351 22.9288 21.4075 23.3997 21.4075 23.8706C21.4075 24.3415 21.2988 24.8124 21.1539 25.2471H1.37646C1.01423 25.2471 0.652005 25.1022 0.398447 24.8486C0.144889 24.595 0 24.2328 0 23.8706C0 23.5084 0.144889 23.1461 0.398447 22.8926C0.652005 22.639 1.01423 22.4941 1.37646 22.4941H21.1539Z" fill="#EC1630"/>
<path fill-rule="evenodd" clip-rule="evenodd" d="M10.0723 18.9593H15.8317C16.375 20.3719 17.7515 21.3499 19.3453 21.3499C21.4462 21.3499 23.1124 19.6475 23.1124 17.5828C23.1124 15.4819 21.41 13.8157 19.3453 13.8157C17.7515 13.8157 16.375 14.7937 15.8317 16.2063H10.0723V1.60866H15.5781V9.10673C16.7373 8.59961 18.0051 8.30983 19.3453 8.30983C24.4527 8.30983 28.6182 12.4754 28.6182 17.5828C28.6182 22.6902 24.4889 26.8195 19.3815 26.8558H10.0361V18.9593H10.0723ZM48.106 26.8558H53.6118V8.12872H48.106V26.8558ZM120.225 17.5828C120.225 15.4819 121.927 13.8157 123.992 13.8157C125.586 13.8157 126.962 14.7937 127.506 16.2063H133.193C132.541 11.751 128.665 8.30983 124.028 8.30983C122.688 8.30983 121.42 8.59961 120.261 9.10673V8.12872H114.719V26.8558H120.225V17.5828ZM38.4708 26.8558V17.4741C38.4708 15.3732 40.1732 13.707 42.2379 13.707H44.9908V8.20116H42.2741C40.9339 8.20116 44.9908 -7.10349 38.507 8.99806L38.4708 1.43051e-06H28.6182L33.0012 26.8558H38.4708ZM127.795 26.8558H133.301V18.9593H127.795V26.8558ZM75.2366 26.8558H65.9637C60.8563 26.8558 56.6907 22.6902 56.6907 17.5828C56.6907 12.4754 60.8563 8.30983 65.9637 8.30983C70.6364 8.30983 74.4759 11.751 75.128 16.2063H69.4772C68.9339 14.7937 67.5574 13.8157 65.9637 13.8157C63.8627 13.8157 62.1965 15.5181 62.1965 17.5828C62.1965 19.6837 63.899 21.3499 65.9637 21.3499C67.5574 21.3499 68.9339 20.3357 69.4772 18.9593H75.2366V26.8558ZM84.8356 8.27361V1.57245H79.3298V8.27361H77.3375V13.7794H79.3298V17.5466C79.3298 22.6539 83.4953 26.8195 88.6027 26.8195H91.3556V21.3137H88.6027C86.5018 21.3137 84.8356 19.6113 84.8356 17.5466V13.7794H88.6027V8.27361H84.8356ZM93.3479 16.2063C93.9999 11.751 97.8757 8.30983 102.512 8.30983C107.62 8.30983 111.785 12.4754 111.785 17.5828C111.785 22.6902 107.62 26.8558 102.512 26.8558C97.8395 26.8558 93.9999 23.4146 93.3479 18.9593H98.9986C99.5419 20.3719 100.918 21.3499 102.512 21.3499C104.613 21.3499 106.279 19.6475 106.279 17.5828C106.279 15.4819 104.577 13.8157 102.512 13.8157C100.918 13.8157 99.5419 14.7937 98.9986 16.2063H93.3479ZM50.8589 1.5C52.3802 1.5 53.6118 2.73157 53.6118 4.25291C53.6118 5.77426 52.3802 7.00583 50.8589 7.00583C49.3375 7.00583 48.106 5.77426 48.106 4.25291C48.106 2.73157 49.3375 1.5 50.8589 1.5Z" fill="url(#paint0_linear_3379_4)"/>
<defs>
<linearGradient id="paint0_linear_3379_4" x1="-4.56106" y1="13.4279" x2="133.301" y2="13.4279" gradientUnits="userSpaceOnUse">
<stop stop-color="#6651EA"/>
<stop offset="0.211538" stop-color="#B2D9FC"/>
<stop offset="0.548077" stop-color="#FAEFF8"/>
<stop offset="1" stop-color="#B2D9FC"/>
</linearGradient>
</defs>
</svg>
