<svg xmlns="http://www.w3.org/2000/svg">
   <symbol id="icon-logo" viewBox="0 0 140 27" fill="none" xmlns="http://www.w3.org/2000/svg">
<path fill-rule="evenodd" clip-rule="evenodd" d="M118.81 22.4941C118.629 22.9288 118.556 23.3997 118.556 23.8706V25.2471H138.624C138.986 25.2471 139.348 25.1022 139.602 24.8486C139.855 24.595 140 24.2328 140 23.8706C140 23.5084 139.855 23.1461 139.602 22.8926C139.348 22.639 138.986 22.4941 138.624 22.4941H118.81ZM110.008 22.4941H113.014V25.2471H110.008C110.08 24.8124 110.116 24.3415 110.116 23.8706C110.116 23.3997 110.08 22.9288 110.008 22.4941ZM83.1307 22.4941H104.357C104.538 22.9288 104.611 23.3997 104.611 23.8706C104.611 24.3415 104.502 24.8124 104.357 25.2471H83.3842C83.2031 24.8124 83.1307 24.3415 83.1307 23.8706V22.4941V22.4941ZM60.7452 22.4941H77.6248V23.8706C77.6248 24.3415 77.6611 24.8124 77.7335 25.2471H60.7814C60.6003 24.8124 60.5278 24.3415 60.5278 23.8706C60.4916 23.3635 60.564 22.8926 60.7452 22.4941ZM55.0944 25.2471H51.9069V22.4941H55.0944C55.022 22.9288 54.9858 23.3997 54.9858 23.8706C54.9858 24.3415 55.022 24.7762 55.0944 25.2471ZM37.0194 22.4941C36.8745 22.8926 36.8021 23.3273 36.8021 23.7982V25.2471H46.401V22.4941H37.0194ZM26.8409 22.4941H31.2962V25.2471H26.8409C26.9133 24.8124 26.9495 24.3415 26.9495 23.8706C26.9133 23.3997 26.9133 22.9288 26.8409 22.4941ZM21.1539 22.4941C21.3351 22.9288 21.4075 23.3997 21.4075 23.8706C21.4075 24.3415 21.2988 24.8124 21.1539 25.2471H1.37646C1.01423 25.2471 0.652005 25.1022 0.398447 24.8486C0.144889 24.595 0 24.2328 0 23.8706C0 23.5084 0.144889 23.1461 0.398447 22.8926C0.652005 22.639 1.01423 22.4941 1.37646 22.4941H21.1539Z" fill="#EC1630"/>
<path fill-rule="evenodd" clip-rule="evenodd" d="M10.0723 18.9593H15.8317C16.375 20.3719 17.7515 21.3499 19.3453 21.3499C21.4462 21.3499 23.1124 19.6475 23.1124 17.5828C23.1124 15.4819 21.41 13.8157 19.3453 13.8157C17.7515 13.8157 16.375 14.7937 15.8317 16.2063H10.0723V1.60866H15.5781V9.10673C16.7373 8.59961 18.0051 8.30983 19.3453 8.30983C24.4527 8.30983 28.6182 12.4754 28.6182 17.5828C28.6182 22.6902 24.4889 26.8195 19.3815 26.8558H10.0361V18.9593H10.0723ZM48.106 26.8558H53.6118V8.12872H48.106V26.8558ZM120.225 17.5828C120.225 15.4819 121.927 13.8157 123.992 13.8157C125.586 13.8157 126.962 14.7937 127.506 16.2063H133.193C132.541 11.751 128.665 8.30983 124.028 8.30983C122.688 8.30983 121.42 8.59961 120.261 9.10673V8.12872H114.719V26.8558H120.225V17.5828ZM38.4708 26.8558V17.4741C38.4708 15.3732 40.1732 13.707 42.2379 13.707H44.9908V8.20116H42.2741C40.9339 8.20116 44.9908 -7.10349 38.507 8.99806L38.4708 1.43051e-06H28.6182L33.0012 26.8558H38.4708ZM127.795 26.8558H133.301V18.9593H127.795V26.8558ZM75.2366 26.8558H65.9637C60.8563 26.8558 56.6907 22.6902 56.6907 17.5828C56.6907 12.4754 60.8563 8.30983 65.9637 8.30983C70.6364 8.30983 74.4759 11.751 75.128 16.2063H69.4772C68.9339 14.7937 67.5574 13.8157 65.9637 13.8157C63.8627 13.8157 62.1965 15.5181 62.1965 17.5828C62.1965 19.6837 63.899 21.3499 65.9637 21.3499C67.5574 21.3499 68.9339 20.3357 69.4772 18.9593H75.2366V26.8558ZM84.8356 8.27361V1.57245H79.3298V8.27361H77.3375V13.7794H79.3298V17.5466C79.3298 22.6539 83.4953 26.8195 88.6027 26.8195H91.3556V21.3137H88.6027C86.5018 21.3137 84.8356 19.6113 84.8356 17.5466V13.7794H88.6027V8.27361H84.8356ZM93.3479 16.2063C93.9999 11.751 97.8757 8.30983 102.512 8.30983C107.62 8.30983 111.785 12.4754 111.785 17.5828C111.785 22.6902 107.62 26.8558 102.512 26.8558C97.8395 26.8558 93.9999 23.4146 93.3479 18.9593H98.9986C99.5419 20.3719 100.918 21.3499 102.512 21.3499C104.613 21.3499 106.279 19.6475 106.279 17.5828C106.279 15.4819 104.577 13.8157 102.512 13.8157C100.918 13.8157 99.5419 14.7937 98.9986 16.2063H93.3479ZM50.8589 1.5C52.3802 1.5 53.6118 2.73157 53.6118 4.25291C53.6118 5.77426 52.3802 7.00583 50.8589 7.00583C49.3375 7.00583 48.106 5.77426 48.106 4.25291C48.106 2.73157 49.3375 1.5 50.8589 1.5Z" fill="url(#paint0_linear_3379_4)"/>
<defs>
<linearGradient id="paint0_linear_3379_4" x1="-4.56106" y1="13.4279" x2="133.301" y2="13.4279" gradientUnits="userSpaceOnUse">
<stop stop-color="#6651EA"/>
<stop offset="0.211538" stop-color="#B2D9FC"/>
<stop offset="0.548077" stop-color="#FAEFF8"/>
<stop offset="1" stop-color="#B2D9FC"/>
</linearGradient>
</defs>
</symbol>

    <symbol id="icon-menu" viewBox="0 0 24 24" fill="none" xmlns="http://www.w3.org/2000/svg">
        <path d="M4.12494 7.12524H19.8749" stroke="black" stroke-width="1.5" stroke-miterlimit="10" stroke-linecap="round"/>
        <path d="M4.12494 12.0002H13.8749" stroke="black" stroke-width="1.5" stroke-miterlimit="10" stroke-linecap="round"/>
        <path d="M4.12494 16.874H16.8749" stroke="black" stroke-width="1.5" stroke-miterlimit="10" stroke-linecap="round"/>
    </symbol>
    <symbol id="icon-location" viewBox="0 0 24 24" fill="none" xmlns="http://www.w3.org/2000/svg">
        <path d="M12 2C7.6 2 4 5.6 4 10C4 15.4 11 21.5 11.3 21.8C11.5 21.9 11.8 22 12 22C12.2 22 12.5 21.9 12.7 21.8C13 21.5 20 15.4 20 10C20 5.6 16.4 2 12 2ZM12 19.7C9.9 17.7 6 13.4 6 10C6 6.7 8.7 4 12 4C15.3 4 18 6.7 18 10C18 13.3 14.1 17.7 12 19.7ZM12 6C9.8 6 8 7.8 8 10C8 12.2 9.8 14 12 14C14.2 14 16 12.2 16 10C16 7.8 14.2 6 12 6ZM12 12C10.9 12 10 11.1 10 10C10 8.9 10.9 8 12 8C13.1 8 14 8.9 14 10C14 11.1 13.1 12 12 12Z" fill="#A5A5A5"/>
    </symbol>
    <symbol id="icon-arrow-bottom" viewBox="0 0 9 6" fill="none" xmlns="http://www.w3.org/2000/svg">
        <path fill-rule="evenodd" clip-rule="evenodd" d="M1.14645 1.14645C1.34171 0.951184 1.65829 0.951184 1.85355 1.14645L4.5 3.79289L7.14645 1.14645C7.34171 0.951184 7.65829 0.951184 7.85355 1.14645C8.04882 1.34171 8.04882 1.65829 7.85355 1.85355L4.85355 4.85355C4.65829 5.04882 4.34171 5.04882 4.14645 4.85355L1.14645 1.85355C0.951184 1.65829 0.951184 1.34171 1.14645 1.14645Z" fill="black" stroke="black" stroke-width="0.5" stroke-linecap="round" stroke-linejoin="round"/>
    </symbol>
    <symbol id="icon-basket" viewBox="0 0 24 24" fill="none" xmlns="http://www.w3.org/2000/svg">
        <path fill-rule="evenodd" clip-rule="evenodd" d="M9.75 6C9.75 4.75736 10.7574 3.75 12 3.75C13.2426 3.75 14.25 4.75736 14.25 6V6.25H9.75V6ZM8.25 7.75V9C8.25 9.41421 8.58579 9.75 9 9.75C9.41422 9.75 9.75 9.41421 9.75 9V7.75H14.25V9C14.25 9.41421 14.5858 9.75 15 9.75C15.4142 9.75 15.75 9.41421 15.75 9V7.75H17.3055L18.1901 19.25H5.80991L6.69453 7.75H8.25ZM8.25 6.25V6C8.25 3.92893 9.92893 2.25 12 2.25C14.0711 2.25 15.75 3.92893 15.75 6V6.25H18C18.3919 6.25 18.7177 6.55173 18.7478 6.94248L19.7478 19.9425C19.7638 20.1508 19.6922 20.3563 19.5503 20.5096C19.4084 20.6629 19.2089 20.75 19 20.75H5C4.79109 20.75 4.59165 20.6629 4.44971 20.5096C4.30777 20.3563 4.23619 20.1508 4.25221 19.9425L5.25221 6.94248C5.28227 6.55173 5.6081 6.25 6 6.25H8.25Z" fill="black"/>
    </symbol>
    <symbol id="icon-user" viewBox="0 0 24 24" fill="none" xmlns="http://www.w3.org/2000/svg">
        <path fill-rule="evenodd" clip-rule="evenodd" d="M8.75 7C8.75 5.20507 10.2051 3.75 12 3.75C13.7949 3.75 15.25 5.20507 15.25 7C15.25 8.79493 13.7949 10.25 12 10.25C10.2051 10.25 8.75 8.79493 8.75 7ZM12 2.25C9.37665 2.25 7.25 4.37665 7.25 7C7.25 9.62335 9.37665 11.75 12 11.75C14.6234 11.75 16.75 9.62335 16.75 7C16.75 4.37665 14.6234 2.25 12 2.25ZM5.75 18.3333C5.75 16.8886 6.88707 15.75 8.25 15.75H15.75C17.1129 15.75 18.25 16.8886 18.25 18.3333V19.25H5.75V18.3333ZM8.25 14.25C6.02307 14.25 4.25 16.0962 4.25 18.3333V20C4.25 20.4142 4.58579 20.75 5 20.75H19C19.4142 20.75 19.75 20.4142 19.75 20V18.3333C19.75 16.0962 17.9769 14.25 15.75 14.25H8.25Z" fill="black"/>
    </symbol>
    <symbol id="icon-logo-black" width="180" height="33" viewBox="0 0 180 33" fill="none" xmlns="http://www.w3.org/2000/svg">
        <path fill-rule="evenodd" clip-rule="evenodd" d="M152.755 19.0273C152.523 19.5897 152.429 20.199 152.429 20.8082V22.5891H178.23C178.696 22.5891 179.162 22.4016 179.488 22.0736C179.814 21.7455 180 21.2768 180 20.8082C180 20.3396 179.814 19.8709 179.488 19.5429C179.162 19.2148 178.696 19.0273 178.23 19.0273H152.755ZM141.439 19.0273H145.304V22.5891H141.439C141.532 22.0267 141.578 21.4174 141.578 20.8082C141.578 20.199 141.532 19.5897 141.439 19.0273ZM106.882 19.0273H134.173C134.406 19.5897 134.499 20.199 134.499 20.8082C134.499 21.4174 134.36 22.0267 134.173 22.5891H107.208C106.975 22.0267 106.882 21.4174 106.882 20.8082V19.0273ZM78.1009 19.0273H99.8034V20.8082C99.8034 21.4174 99.8499 22.0267 99.9431 22.5891H78.1475C77.9146 22.0267 77.8215 21.4174 77.8215 20.8082C77.7749 20.1521 77.868 19.5429 78.1009 19.0273ZM70.8357 22.5891H66.7374V19.0273H70.8357C70.7426 19.5897 70.696 20.199 70.696 20.8082C70.696 21.4174 70.7426 21.9798 70.8357 22.5891ZM47.5964 19.0273C47.4101 19.5429 47.3169 20.1052 47.3169 20.7145V22.5891H59.6585V19.0273H47.5964ZM34.5097 19.0273H40.238V22.5891H34.5097C34.6028 22.0267 34.6494 21.4174 34.6494 20.8082C34.6028 20.199 34.6028 19.5897 34.5097 19.0273ZM27.1979 19.0273C27.4308 19.5897 27.5239 20.199 27.5239 20.8082C27.5239 21.4174 27.3842 22.0267 27.1979 22.5891H1.76973C1.30401 22.5891 0.838292 22.4016 0.512289 22.0736C0.186286 21.7455 0 21.2768 0 20.8082C0 20.3396 0.186286 19.8709 0.512289 19.5429C0.838292 19.2148 1.30401 19.0273 1.76973 19.0273H27.1979Z" fill="#9FCB96"/>
        <path fill-rule="evenodd" clip-rule="evenodd" d="M10.7581 22.5888H18.163C18.8616 24.4165 20.6313 25.6819 22.6805 25.6819C25.3817 25.6819 27.524 23.4792 27.524 20.8079C27.524 18.0898 25.3351 15.934 22.6805 15.934C20.6313 15.934 18.8616 17.1993 18.163 19.0271H10.7581V0.140588H17.837V9.84159C19.3273 9.18548 20.9573 8.81056 22.6805 8.81056C29.2471 8.81056 34.6029 14.2 34.6029 20.8079C34.6029 27.4158 29.2937 32.7584 22.7271 32.8053H10.7115V22.5888H10.7581ZM59.6585 32.8053H66.7374V8.57623H59.6585V32.8053ZM152.383 20.8079C152.383 18.0898 154.572 15.934 157.226 15.934C159.276 15.934 161.045 17.1993 161.744 19.0271H169.056C168.217 13.2627 163.234 8.81056 157.273 8.81056C155.55 8.81056 153.92 9.18548 152.43 9.84159V8.57623H145.304V32.8053H152.383V20.8079ZM47.2704 32.8053V20.6673C47.2704 17.9492 49.4593 15.7934 52.1139 15.7934H55.6533V8.66997H52.1604C50.4373 8.66997 48.8073 9.04489 47.317 9.701V8.52938H40.2381V32.8053H47.2704ZM162.116 32.8053H169.195V22.5888H162.116V32.8053ZM94.5408 32.8053H82.6184C76.0518 32.8053 70.696 27.4158 70.696 20.8079C70.696 14.2 76.0518 8.81056 82.6184 8.81056C88.6262 8.81056 93.5628 13.2627 94.4011 19.0271H87.1359C86.4373 17.1993 84.6676 15.934 82.6184 15.934C79.9172 15.934 77.7749 18.1366 77.7749 20.8079C77.7749 23.5261 79.9638 25.6819 82.6184 25.6819C84.6676 25.6819 86.4373 24.3696 87.1359 22.5888H94.5408V32.8053ZM106.882 8.7637V0.0937351H99.8034V8.7637H97.2419V15.8871H99.8034V20.7611C99.8034 27.369 105.159 32.7584 111.726 32.7584H115.265V25.635H111.726C109.025 25.635 106.882 23.4323 106.882 20.7611V15.8871H111.726V8.7637H106.882ZM117.827 19.0271C118.665 13.2627 123.648 8.81056 129.609 8.81056C136.176 8.81056 141.532 14.2 141.532 20.8079C141.532 27.4158 136.176 32.8053 129.609 32.8053C123.602 32.8053 118.665 28.3531 117.827 22.5888H125.092C125.79 24.4165 127.56 25.6819 129.609 25.6819C132.311 25.6819 134.453 23.4792 134.453 20.8079C134.453 18.0898 132.264 15.934 129.609 15.934C127.56 15.934 125.79 17.1993 125.092 19.0271H117.827ZM63.198 0C65.154 0 66.7374 1.5934 66.7374 3.56172C66.7374 5.53004 65.154 7.12344 63.198 7.12344C61.242 7.12344 59.6585 5.53004 59.6585 3.56172C59.6585 1.5934 61.242 0 63.198 0Z" fill="white"/>
    </symbol>
    <symbol id="icon-visa" width="44" height="15" viewBox="0 0 44 15" fill="none" xmlns="http://www.w3.org/2000/svg">
        <g clip-path="url(#clip0_1_1277)">
            <path d="M19.0665 14.2977H15.5022L17.7316 0.745361H21.2957L19.0665 14.2977Z" fill="#00579F"/>
            <path d="M31.9876 1.07698C31.2846 0.802765 30.1695 0.5 28.7907 0.5C25.2708 0.5 22.7922 2.34533 22.777 4.9836C22.7477 6.93011 24.5516 8.01125 25.9008 8.66028C27.2798 9.32349 27.7485 9.75637 27.7485 10.3475C27.7345 11.2554 26.6342 11.6739 25.608 11.6739C24.185 11.6739 23.4225 11.4582 22.2638 10.9531L21.7944 10.7365L21.2957 13.7787C22.1316 14.1532 23.6718 14.4854 25.2708 14.5C29.0108 14.5 31.4456 12.6832 31.4744 9.87173C31.4887 8.32897 30.5361 7.14684 28.4826 6.18087C27.2359 5.56077 26.4725 5.14265 26.4725 4.50819C26.4871 3.9314 27.1182 3.34062 28.5254 3.34062C29.6842 3.31169 30.5355 3.58552 31.1805 3.85954L31.5029 4.00345L31.9876 1.07698V1.07698Z" fill="#00579F"/>
            <path d="M36.7248 9.49661C37.0183 8.71804 38.1478 5.70477 38.1478 5.70477C38.133 5.7337 38.4408 4.91183 38.6168 4.40728L38.8659 5.57504C38.8659 5.57504 39.5408 8.81903 39.6874 9.49661C39.1303 9.49661 37.4288 9.49661 36.7248 9.49661ZM41.1245 0.745361H38.3675C37.5173 0.745361 36.8713 0.990256 36.5045 1.86981L31.2102 14.2975H34.9501C34.9501 14.2975 35.5658 12.6249 35.6982 12.2646C36.1085 12.2646 39.7466 12.2646 40.2745 12.2646C40.3768 12.7404 40.6998 14.2975 40.6998 14.2975H44L41.1245 0.745361V0.745361Z" fill="#00579F"/>
            <path d="M12.5253 0.745361L9.03467 9.98678L8.65324 8.11251C8.00789 5.94985 5.98395 3.60017 3.72534 2.43184L6.92264 14.2834H10.6918L16.2943 0.745361H12.5253V0.745361Z" fill="#00579F"/>
            <path d="M5.79329 0.745361H0.0586675L0 1.01919C4.47337 2.14383 7.43599 4.85472 8.6532 8.11309L7.40656 1.88456C7.20132 1.019 6.57059 0.773913 5.79329 0.745361Z" fill="#FAA61A"/>
        </g>
        <defs>
            <clipPath id="clip0_1_1277">
                <rect width="44" height="14" fill="white" transform="translate(0 0.5)"/>
            </clipPath>
        </defs>
    </symbol>
    <symbol id="icon-mir" width="66" height="19" viewBox="0 0 66 19" fill="none" xmlns="http://www.w3.org/2000/svg">
        <g clip-path="url(#clip0_1_1290)">
            <path fill-rule="evenodd" clip-rule="evenodd" d="M17.7849 3.61491e-07V0.00829731C17.7768 0.00829731 15.2069 3.16503e-07 14.5216 2.49738C13.8934 4.78734 12.1231 11.1096 12.0742 11.2838H11.5847C11.5847 11.2838 9.77355 4.82052 9.13721 2.48908C8.45192 -0.00829666 5.87392 3.61491e-07 5.87392 3.61491e-07H0V19H5.87392V7.71616H6.11867H6.36341L9.78986 19H13.869L17.2954 7.72445H17.7849V19H23.6588V3.61491e-07H17.7849Z" fill="#4DB45E"/>
            <path fill-rule="evenodd" clip-rule="evenodd" d="M39.2409 0C39.2409 0 37.5195 0.157642 36.7118 1.99127L32.5512 11.2838H32.0617V0H26.1877V19H31.7353C31.7353 19 33.5383 18.8341 34.346 17.0087L38.4251 7.71616H38.9146V19H44.7885V0H39.2409Z" fill="#4DB45E"/>
            <path fill-rule="evenodd" clip-rule="evenodd" d="M47.3994 8.62891V19.0001H53.2733V12.9433H59.6367C62.4105 12.9433 64.7601 11.1429 65.633 8.62891H47.3994Z" fill="#4DB45E"/>
            <path fill-rule="evenodd" clip-rule="evenodd" d="M59.6365 0H46.5752C47.2279 3.61747 49.8956 6.5214 53.3465 7.46725C54.1297 7.68297 54.9537 7.79913 55.8021 7.79913H65.8694C65.9591 7.36769 65.9999 6.92795 65.9999 6.47162C65.9999 2.89563 63.1527 0 59.6365 0Z" fill="url(#paint0_linear_1_1290)"/>
        </g>
        <defs>
            <linearGradient id="paint0_linear_1_1290" x1="46.5768" y1="3.89956" x2="65.9999" y2="3.89956" gradientUnits="userSpaceOnUse">
                <stop offset="0.3" stop-color="#00B4E6"/>
                <stop offset="1" stop-color="#088CCB"/>
            </linearGradient>
            <clipPath id="clip0_1_1290">
                <rect width="66" height="19" fill="white"/>
            </clipPath>
        </defs>
    </symbol>
    <symbol id="icon-mc" width="34" height="22" viewBox="0 0 34 22" fill="none" xmlns="http://www.w3.org/2000/svg">
        <path d="M21.5867 2.30005H12.3857V19.2029H21.5867V2.30005Z" fill="#FF5A00"/>
        <path d="M12.9984 10.7513C12.9984 7.31714 14.5773 4.2692 17 2.29987C15.217 0.866366 12.9678 0 10.5144 0C4.70256 0 0 4.8085 0 10.7513C0 16.6941 4.70256 21.5026 10.5144 21.5026C12.9678 21.5026 15.217 20.6362 17 19.2027C14.5739 17.2612 12.9984 14.1854 12.9984 10.7513Z" fill="#EB001B"/>
        <path d="M34 10.7513C34 16.6941 29.2974 21.5026 23.4856 21.5026C21.0322 21.5026 18.783 20.6362 17 19.2027C19.4534 17.2299 21.0016 14.1854 21.0016 10.7513C21.0016 7.31714 19.4227 4.2692 17 2.29987C18.7796 0.866366 21.0288 0 23.4822 0C29.2974 0 34 4.83982 34 10.7513Z" fill="#F79E1B"/>
    </symbol>
    <symbol id="icon-affarts" width="62" height="18" viewBox="0 0 62 18" fill="none" xmlns="http://www.w3.org/2000/svg">
        <path fill-rule="evenodd" clip-rule="evenodd" d="M25.1663 15.4234C25.1663 14.0005 24.0128 12.8469 22.5897 12.8469C21.1667 12.8469 20.0132 14.0005 20.0132 15.4234C20.0132 16.8464 21.1667 18 22.5897 18C24.0128 18 25.1663 16.8464 25.1663 15.4234Z" fill="#F9564F"/>
        <path d="M18.0277 2.07961C16.9432 2.07961 16.401 2.66986 16.401 3.85036V4.50925H19.4278V6.56826H16.4628V15.422H13.889V3.80918C13.889 2.6424 14.2322 1.71585 14.9185 1.02951C15.6049 0.343169 16.5795 0 17.8423 0C18.8169 0 19.5856 0.199038 20.1484 0.597114L19.4278 2.53259C19.016 2.2306 18.5493 2.07961 18.0277 2.07961Z" fill="white"/>
        <path fill-rule="evenodd" clip-rule="evenodd" d="M11.654 15.422H9.2038V14.0013C8.77827 14.5229 8.24979 14.9141 7.61836 15.1749C7.00065 15.4358 6.31432 15.5662 5.55934 15.5662C4.48866 15.5662 3.52778 15.3328 2.67672 14.8661C1.83939 14.3994 1.1805 13.7405 0.700066 12.8894C0.233355 12.0384 0 11.0501 0 9.92446C0 8.79886 0.233355 7.8174 0.700066 6.98007C1.1805 6.12901 1.83939 5.47012 2.67672 5.00341C3.52778 4.5367 4.48866 4.30334 5.55934 4.30334C6.27314 4.30334 6.92516 4.42689 7.51541 4.67397C8.11939 4.92105 8.64101 5.28481 9.08026 5.76525V4.42689H11.654V15.422ZM5.84761 13.363C6.79475 13.363 7.57718 13.0473 8.19488 12.4159C8.81259 11.7844 9.12144 10.954 9.12144 9.92446C9.12144 8.89495 8.81259 8.06448 8.19488 7.43305C7.57718 6.80162 6.79475 6.4859 5.84761 6.4859C4.90046 6.4859 4.11803 6.80162 3.50033 7.43305C2.89635 8.06448 2.59436 8.89495 2.59436 9.92446C2.59436 10.954 2.89635 11.7844 3.50033 12.4159C4.11803 13.0473 4.90046 13.363 5.84761 13.363Z" fill="white"/>
        <path d="M22.5274 3.85036C22.5274 2.66986 23.0696 2.07961 24.154 2.07961C24.6756 2.07961 25.1424 2.2306 25.5542 2.53259L26.2748 0.597114C25.712 0.199038 24.9433 0 23.9687 0C22.7059 0 21.7313 0.343169 21.0449 1.02951C20.3586 1.71585 20.0154 2.6424 20.0154 3.80918V12.3142C20.714 11.7352 21.6109 11.3871 22.5892 11.387V6.56826H25.5542V4.50925H22.5274V3.85036Z" fill="white"/>
        <path fill-rule="evenodd" clip-rule="evenodd" d="M36.729 15.422H34.2788V14.0013C33.8532 14.5229 33.3247 14.9141 32.6933 15.1749C32.0756 15.4358 31.3893 15.5662 30.6343 15.5662C29.5636 15.5662 28.6027 15.3328 27.7517 14.8661C26.9143 14.3994 26.2555 13.7405 25.775 12.8894C25.3083 12.0384 25.075 11.0501 25.075 9.92446C25.075 8.79886 25.3083 7.8174 25.775 6.98007C26.2555 6.12901 26.9143 5.47012 27.7517 5.00341C28.6027 4.5367 29.5636 4.30334 30.6343 4.30334C31.3481 4.30334 32.0001 4.42689 32.5904 4.67397C33.1943 4.92105 33.716 5.28481 34.1552 5.76525V4.42689H36.729V15.422ZM30.9226 13.363C31.8697 13.363 32.6521 13.0473 33.2698 12.4159C33.8875 11.7844 34.1964 10.954 34.1964 9.92446C34.1964 8.89495 33.8875 8.06448 33.2698 7.43305C32.6521 6.80162 31.8697 6.4859 30.9226 6.4859C29.9754 6.4859 29.193 6.80162 28.5753 7.43305C27.9713 8.06448 27.6693 8.89495 27.6693 9.92446C27.6693 10.954 27.9713 11.7844 28.5753 12.4159C29.193 13.0473 29.9754 13.363 30.9226 13.363Z" fill="white"/>
        <path d="M45.3263 4.30334C43.4595 4.30334 42.1555 4.87987 41.4142 6.03292V4.42689H38.964V15.422H41.5378V10.0892C41.5378 8.99104 41.8192 8.15371 42.382 7.57718C42.9448 6.98693 43.7272 6.6918 44.7292 6.6918C44.9077 6.6918 45.1067 6.71239 45.3263 6.75357V4.30334Z" fill="white"/>
        <path d="M52.5543 14.8249C52.2523 15.072 51.8817 15.2573 51.4424 15.3809C51.0169 15.5044 50.5639 15.5662 50.0835 15.5662C48.8755 15.5662 47.9421 15.2504 47.2832 14.619C46.6243 13.9876 46.2949 13.0679 46.2949 11.8599V1.99725H48.8687V4.50925H51.8131V6.56826H48.8687V11.7982C48.8687 12.3335 48.9991 12.7453 49.2599 13.0336C49.5344 13.3081 49.9119 13.4454 50.3923 13.4454C50.9689 13.4454 51.4493 13.2944 51.8336 12.9924L52.3308 14.2565L53.2815 12.3747C53.7757 12.7041 54.366 12.9718 55.0523 13.1777C55.7524 13.3699 56.4387 13.466 57.1113 13.466C58.6487 13.466 59.4174 13.061 59.4174 12.2511C59.4174 11.8668 59.2184 11.5991 58.8203 11.4481C58.436 11.2971 57.8114 11.153 56.9466 11.0157C56.0406 10.8785 55.2994 10.7206 54.7229 10.5422C54.1601 10.3637 53.6659 10.0549 53.2404 9.61561C52.8286 9.16262 52.6227 8.53805 52.6227 7.7419C52.6227 6.69867 53.0551 5.8682 53.9198 5.25049C54.7984 4.61906 55.9789 4.30334 57.4613 4.30334C58.2163 4.30334 58.9713 4.39257 59.7263 4.57102C60.4812 4.73574 61.0989 4.96223 61.5794 5.25049L60.5911 7.20656C59.6576 6.65749 58.6075 6.38295 57.4408 6.38295C56.6858 6.38295 56.1093 6.49963 55.7112 6.73298C55.3268 6.95261 55.1347 7.24774 55.1347 7.61836C55.1347 8.03016 55.3406 8.32529 55.7524 8.50374C56.1779 8.66846 56.8299 8.82632 57.7084 8.97731C58.5869 9.11458 59.3076 9.27244 59.8704 9.45088C60.4332 9.62933 60.9136 9.93132 61.3117 10.3569C61.7235 10.7824 61.9294 11.3864 61.9294 12.1688C61.9294 13.1983 61.4833 14.0219 60.5911 14.6396C59.6988 15.2573 58.484 15.5662 56.9466 15.5662C56.0544 15.5662 55.1827 15.4495 54.3316 15.2161C53.5305 14.9965 52.8815 14.7221 52.3844 14.393L52.5543 14.8249Z" fill="white"/>
    </symbol>
    <symbol id="icon-close" width="25" height="24" viewBox="0 0 25 24" fill="none" xmlns="http://www.w3.org/2000/svg">
        <path d="M8.72803 16.2427L17.2133 7.75739" stroke="#292D32" stroke-linecap="round" stroke-linejoin="round"/>
        <path d="M17.2133 16.2426L8.72803 7.75732" stroke="#292D32" stroke-linecap="round" stroke-linejoin="round"/>
    </symbol>
    <symbol id="icon-filter" width="25" height="25" viewBox="0 0 25 25" fill="none" xmlns="http://www.w3.org/2000/svg">
        <path d="M15.001 16.5V19.624C15.001 20.198 14.611 20.698 14.054 20.837L11.554 21.462C10.765 21.659 10.001 21.063 10.001 20.249V14L4.79398 8.793C4.60598 8.605 4.50098 8.351 4.50098 8.086V5.5C4.50098 4.948 4.94898 4.5 5.50098 4.5H19.501C20.053 4.5 20.501 4.948 20.501 5.5V6.5" stroke="#A5A5A5" stroke-width="1.5" stroke-linecap="round" stroke-linejoin="round"/>
        <path d="M15.501 13.5L19.501 9.5" stroke="#A5A5A5" stroke-width="1.5" stroke-linecap="round" stroke-linejoin="round"/>
        <path d="M19.501 13.5L15.501 9.5" stroke="#A5A5A5" stroke-width="1.5" stroke-linecap="round" stroke-linejoin="round"/>
    </symbol>
    <symbol id="icon-check" width="9" height="7" viewBox="0 0 9 7" fill="none" xmlns="http://www.w3.org/2000/svg">
        <path d="M1.05273 4.2632L3.07379 5.94741L7.78958 0.894775" stroke="white" stroke-width="1.5" stroke-linecap="round" stroke-linejoin="round"/>
    </symbol>
    <symbol id="icon-i" width="5" height="10" viewBox="0 0 5 10" fill="none" xmlns="http://www.w3.org/2000/svg">
        <path d="M1.00879 4.24878H2.15927V8.50055" stroke="black" stroke-width="1.5" stroke-linecap="round" stroke-linejoin="round"/>
        <path d="M0.999756 8.50021H3.31006" stroke="black" stroke-width="1.5" stroke-linecap="round" stroke-linejoin="round"/>
        <path d="M2.10017 1.24435C2.10017 1.38248 1.98819 1.49445 1.85006 1.49445C1.71193 1.49445 1.59996 1.38248 1.59996 1.24435C1.59996 1.10622 1.71193 0.994245 1.85006 0.994245" stroke="black" stroke-width="1.5" stroke-linecap="round" stroke-linejoin="round"/>
        <path d="M1.8501 0.994141C1.98823 0.994141 2.1002 1.10612 2.1002 1.24424" stroke="black" stroke-width="1.5" stroke-linecap="round" stroke-linejoin="round"/>
    </symbol>
    <symbol id="icon-arrow-next" width="41" height="9" viewBox="0 0 41 9" fill="none" xmlns="http://www.w3.org/2000/svg">
        <path d="M40.3536 4.85355C40.5488 4.65829 40.5488 4.34171 40.3536 4.14644L37.1716 0.964463C36.9763 0.769201 36.6597 0.769201 36.4645 0.964463C36.2692 1.15973 36.2692 1.47631 36.4645 1.67157L39.2929 4.5L36.4645 7.32842C36.2692 7.52369 36.2692 7.84027 36.4645 8.03553C36.6597 8.23079 36.9763 8.23079 37.1716 8.03553L40.3536 4.85355ZM4.37114e-08 5L40 5L40 4L-4.37114e-08 4L4.37114e-08 5Z" fill="currentColor"/>
    </symbol>
    <symbol id="icon-arrow-prev" width="41" height="9" viewBox="0 0 41 9" fill="none" xmlns="http://www.w3.org/2000/svg">
        <path d="M0.646447 4.85355C0.451184 4.65829 0.451184 4.34171 0.646447 4.14644L3.82843 0.964463C4.02369 0.769201 4.34027 0.769201 4.53553 0.964463C4.7308 1.15973 4.7308 1.47631 4.53553 1.67157L1.70711 4.5L4.53553 7.32842C4.7308 7.52369 4.7308 7.84027 4.53553 8.03553C4.34027 8.23079 4.02369 8.23079 3.82843 8.03553L0.646447 4.85355ZM41 5L1 5L1 4L41 4L41 5Z" fill="currentColor"/>
    </symbol>
    <symbol id="icon-lamp" width="94" height="94" viewBox="0 0 94 94" fill="none" xmlns="http://www.w3.org/2000/svg">
        <g clip-path="url(#clip0_1_1143)">
            <path d="M31.6116 71.1695L23.4493 79.0638C22.7614 79.7295 22.743 80.8277 23.4087 81.5156C24.0743 82.2045 25.1725 82.2229 25.8605 81.5562L34.0228 73.661C34.7117 72.9953 34.7291 71.8971 34.0634 71.2092C33.3977 70.5213 32.2995 70.5029 31.6116 71.1686V71.1695Z" fill="#fbe9b4"/>
            <path d="M58.5099 73.8012C57.8219 73.1356 56.7238 73.154 56.0581 73.8419C55.3924 74.5308 55.4108 75.628 56.0987 76.2937L64.261 84.1889C64.9499 84.8546 66.0471 84.8372 66.7128 84.1483C67.3785 83.4603 67.3601 82.3622 66.6722 81.6965L58.5099 73.8012Z" fill="#fbe9b4"/>
            <path d="M45.5288 79.3667C44.5709 79.3667 43.7949 80.1427 43.7949 81.1006V92.2662C43.7949 93.2241 44.5709 94 45.5288 94C46.4867 94 47.2626 93.2241 47.2626 92.2662V81.1006C47.2626 80.1427 46.4867 79.3667 45.5288 79.3667Z" fill="#fbe9b4"/>
            <path d="M37.0054 57.4651C37.7649 62.1713 41.9641 65.6932 47.0147 65.6932C52.0654 65.6932 56.2646 62.1713 57.0241 57.4651H37.0054Z" fill="#fbe9b4"/>
            <path d="M55.1645 33.0159C54.4495 32.7789 53.9628 32.1171 53.9503 31.3653V25.4738C53.9773 24.1531 52.9285 23.0617 51.6078 23.0356C51.5904 23.0356 51.573 23.0356 51.5546 23.0356H48.7487V0H45.281V23.0356H42.0271C40.6851 23.0288 39.5908 24.1115 39.584 25.4535V31.5172C39.5811 32.2544 39.1167 32.9104 38.422 33.1581C29.2302 36.4188 22.8743 44.585 22.1689 53.9974H71.8617C71.1505 44.585 64.6011 36.1759 55.1645 33.0159Z" fill="#fbe9b4"/>
        </g>
        <defs>
            <clipPath id="clip0_1_1143">
                <rect width="94" height="94" fill="white"/>
            </clipPath>
        </defs>
    </symbol>




<symbol id="icon-telegram" viewBox="0 0 20 20" fill="none" xmlns="http://www.w3.org/2000/svg">
<path fill-rule="evenodd" clip-rule="evenodd" d="M2.68812 9.415C6.47012 7.829 11.0441 5.573 15.0081 4.048C18.6681 2.703 18.6071 3.07 18.0581 6.731C17.6301 9.659 17.1411 12.586 16.6551 15.514C16.4721 16.916 15.7381 17.648 14.2151 16.798L9.45812 13.443C8.78612 12.893 8.96912 12.465 9.51912 11.919L13.9101 7.77C15.0721 6.609 14.5211 6.184 13.1771 7.098L7.13912 11.184C6.28312 11.795 5.37012 11.795 4.39412 11.49L2.32112 10.756C0.976119 10.267 2.01512 9.716 2.68812 9.414V9.415Z" fill="#ffffff"/>
</symbol>



</svg>
